<svg width="21" height="21" viewBox="0 0 21 21" fill="none" xmlns="http://www.w3.org/2000/svg">
<g id="brand / twitter">
<path id="coolicon" d="M16.896 6.16436C17.6132 5.73563 18.1498 5.06055 18.4056 4.26516C17.7317 4.665 16.9944 4.94666 16.2256 5.09796C15.1597 3.97038 13.4708 3.69598 12.1027 4.42808C10.7346 5.16018 10.026 6.71755 10.3728 8.22996C7.6125 8.09137 5.04079 6.78749 3.29761 4.64276C2.38788 6.21189 2.85277 8.21778 4.36001 9.22676C3.81498 9.20923 3.28203 9.06167 2.80561 8.79636C2.80561 8.81076 2.80561 8.82516 2.80561 8.83956C2.80593 10.4741 3.95791 11.882 5.56001 12.206C5.05446 12.3435 4.52418 12.3637 4.00961 12.2652C4.46017 13.663 5.74845 14.6206 7.21681 14.6492C6.00068 15.6037 4.49879 16.1213 2.95281 16.1188C2.67879 16.1192 2.40498 16.1034 2.13281 16.0716C3.70272 17.0804 5.52991 17.6158 7.39601 17.614C9.99221 17.6318 12.4872 16.6083 14.323 14.7724C16.1588 12.9365 17.1821 10.4414 17.164 7.84516C17.164 7.69636 17.1605 7.54836 17.1536 7.40116C17.826 6.91524 18.4063 6.31328 18.8672 5.62356C18.2408 5.90121 17.5764 6.08349 16.896 6.16436Z" fill="#2C2C2C"/>
</g>
</svg>
